<?xml version="1.0" standalone="no"?>
<!DOCTYPE svg PUBLIC "-//W3C//DTD SVG 20010904//EN"
 "http://www.w3.org/TR/2001/REC-SVG-20010904/DTD/svg10.dtd">
<svg version="1.0" xmlns="http://www.w3.org/2000/svg"
 width="555.000000pt" height="360.000000pt" viewBox="0 0 555.000000 360.000000"
 preserveAspectRatio="xMidYMid meet">

<g transform="translate(0.000000,360.000000) scale(0.100000,-0.100000)"
fill="#000000" stroke="none">
<path d="M880 2713 c-161 -5 -705 -34 -745 -40 l-40 -6 30 -9 c17 -4 136 -13
265 -18 129 -6 309 -15 399 -21 l164 -10 49 33 c35 24 48 39 46 53 -3 22 -5
22 -168 18z"/>
<path d="M1240 2697 c0 -19 12 -33 47 -56 25 -17 54 -31 62 -31 9 0 79 5 156
10 77 5 250 14 385 20 135 5 259 14 275 19 28 8 26 9 -25 15 -68 8 -352 23
-560 31 -85 3 -197 8 -247 11 l-93 5 0 -24z"/>
<path d="M4045 2708 c-247 -8 -573 -26 -640 -35 -48 -6 -49 -6 -20 -14 17 -5
136 -13 265 -19 129 -6 308 -15 397 -20 140 -9 166 -9 190 4 51 28 75 52 71
72 -4 22 7 22 -263 12z"/>
<path d="M4506 2713 c-16 -17 -2 -41 43 -71 l48 -33 164 10 c90 6 270 15 399
21 129 6 249 14 265 19 l30 8 -40 6 c-22 4 -179 13 -350 21 -466 23 -552 25
-559 19z"/>
<path d="M1113 2673 c-19 -13 -23 -25 -23 -69 0 -52 -1 -54 -28 -54 -40 0 -52
-17 -52 -72 l0 -49 133 3 132 3 3 43 c4 52 -10 72 -49 72 -28 0 -29 2 -29 48
0 38 -5 53 -23 70 -27 26 -34 26 -64 5z"/>
<path d="M4372 2667 c-16 -17 -22 -36 -22 -70 0 -45 -1 -47 -28 -47 -40 0 -52
-17 -52 -72 l0 -48 135 0 135 0 0 48 c0 55 -12 72 -52 72 -27 0 -28 2 -28 54
0 46 -4 56 -25 70 -32 21 -37 20 -63 -7z"/>
<path d="M2696 2499 c-112 -17 -226 -90 -272 -174 -10 -19 -23 -35 -29 -35 -5
0 -170 20 -365 45 l-355 45 -362 0 -362 0 -20 -26 c-31 -39 -29 -107 4 -139
13 -14 34 -25 47 -25 13 -1 174 -16 358 -34 l335 -33 364 -155 c328 -139 364
-156 368 -178 2 -14 13 -33 24 -42 19 -16 51 -18 343 -18 351 0 361 2 368 57
3 25 25 36 368 181 l365 154 335 34 c184 18 345 33 358 34 13 0 34 11 47 25
33 32 35 100 4 139 l-20 26 -362 0 -362 0 -355 -45 c-195 -25 -360 -45 -365
-45 -6 0 -19 16 -29 35 -69 128 -250 201 -430 174z"/>
<path d="M1745 1978 c-53 -231 -264 -1280 -259 -1292 10 -26 53 -32 73 -10 11
11 65 184 131 414 77 273 118 400 131 412 11 9 108 65 217 123 108 59 212 117
231 128 l34 20 -94 38 -94 37 -45 -33 c-138 -100 -215 -153 -218 -151 -1 2 13
61 33 131 20 70 34 132 33 137 -4 11 -133 67 -155 67 -7 1 -15 -9 -18 -21z"/>
<path d="M3705 1971 c-38 -16 -71 -33 -72 -38 -2 -6 12 -68 32 -138 19 -71 34
-130 32 -131 -1 -1 -61 39 -132 90 l-130 93 -50 -19 c-27 -11 -69 -27 -92 -36
-38 -15 -57 -32 -35 -32 10 0 459 -245 478 -261 6 -5 14 -20 17 -32 20 -94
223 -776 235 -789 20 -23 45 -23 66 1 16 17 9 53 -114 647 -153 735 -139 674
-154 673 -6 0 -42 -13 -81 -28z"/>
<path d="M2658 1622 l-3 -47 -77 -5 c-63 -4 -82 -9 -100 -28 -22 -22 -23 -27
-23 -237 0 -286 -30 -259 293 -263 136 -2 262 0 280 3 23 4 39 16 53 38 18 30
19 47 17 235 l-3 204 -28 24 c-24 21 -38 24 -103 24 l-74 0 0 50 0 50 -114 -1
-115 -1 -3 -46z m215 -99 c73 -29 137 -128 137 -213 0 -87 -63 -183 -142 -215
-228 -93 -430 179 -270 365 71 83 167 105 275 63z"/>
<path d="M2695 1486 c-62 -28 -115 -110 -115 -178 1 -68 60 -153 123 -177 36
-14 108 -14 144 0 64 24 123 109 123 179 0 70 -59 155 -123 179 -39 15 -116
13 -152 -3z m146 -63 c28 -17 69 -84 69 -114 -1 -33 -40 -99 -69 -113 -61 -32
-140 -14 -176 41 -24 35 -25 111 -2 143 40 58 120 77 178 43z"/>
<path d="M2764 1353 c1 -36 -1 -38 -31 -41 -21 -2 -33 -9 -33 -18 0 -24 47
-64 75 -64 14 0 37 11 50 25 45 44 24 116 -36 130 -25 6 -26 5 -25 -32z"/>
</g>
</svg>
