<?xml version="1.0" standalone="no"?>
<!DOCTYPE svg PUBLIC "-//W3C//DTD SVG 20010904//EN"
 "http://www.w3.org/TR/2001/REC-SVG-20010904/DTD/svg10.dtd">
<svg version="1.0" xmlns="http://www.w3.org/2000/svg"
 width="626.000000pt" height="391.000000pt" viewBox="0 0 626.000000 391.000000"
 preserveAspectRatio="xMidYMid meet">

<g transform="translate(0.000000,391.000000) scale(0.100000,-0.100000)"
fill="currentColor" stroke="currentColor">
<path d="M1723 3850 c-129 -24 -280 -111 -360 -208 -54 -67 -106 -172 -129
-262 -12 -48 -15 -91 -11 -165 9 -169 69 -297 194 -414 146 -138 349 -194 547
-152 l58 13 -58 59 -58 59 -79 0 c-215 0 -396 143 -452 357 -67 257 118 530
388 573 276 43 537 -183 537 -465 l0 -61 59 -58 59 -58 11 51 c30 139 1 317
-70 437 -74 126 -217 236 -359 278 -68 20 -208 28 -277 16z"/>
<path d="M4270 3824 c-215 -58 -380 -226 -436 -446 -17 -65 -17 -269 0 -297 6
-10 24 2 67 45 58 57 59 60 59 114 1 117 42 219 127 310 94 102 205 150 345
150 229 0 425 -170 460 -398 39 -248 -142 -492 -393 -532 -37 -5 -86 -7 -110
-4 -43 5 -45 4 -102 -54 l-59 -60 54 -13 c84 -21 240 -17 323 9 365 113 538
521 368 865 -72 143 -231 271 -390 312 -73 19 -240 18 -313 -1z"/>
<path d="M1750 3541 c-93 -29 -177 -108 -206 -193 -23 -70 -16 -178 16 -241
50 -99 149 -161 260 -161 36 -1 77 2 91 6 23 7 45 -13 256 -225 l230 -232 16
-80 c34 -161 41 -244 41 -460 0 -161 -4 -250 -17 -330 -34 -218 -17 -189 -274
-447 -206 -206 -230 -227 -253 -220 -14 4 -54 7 -90 6 -116 -1 -206 -59 -260
-166 -24 -50 -30 -74 -30 -128 0 -98 23 -155 90 -222 43 -43 69 -60 110 -72
114 -34 218 -13 300 60 82 75 119 174 100 271 l-9 48 232 232 231 232 66 15
c259 59 590 67 855 21 171 -30 147 -14 401 -267 l231 -229 -9 -51 c-23 -125
48 -260 168 -319 40 -20 64 -24 134 -24 72 0 93 4 136 27 112 59 170 164 162
292 -11 163 -129 279 -287 280 -36 1 -78 -2 -92 -6 -23 -7 -46 13 -256 225
l-231 232 -15 75 c-35 167 -42 239 -41 470 0 200 3 254 23 365 13 72 29 144
36 160 7 17 111 128 231 247 l219 218 40 -11 c102 -28 229 12 303 96 55 63 76
128 70 219 -8 116 -65 203 -166 253 -47 23 -70 28 -132 28 -94 -1 -163 -29
-221 -92 -62 -68 -83 -122 -82 -220 l0 -81 -227 -227 -227 -227 -89 -19 c-277
-57 -589 -59 -899 -3 l-90 16 -237 236 c-216 215 -237 238 -230 261 13 47 4
137 -19 190 -29 69 -113 145 -181 166 -54 16 -136 18 -178 6z"/>
<path d="M1770 1269 c-138 -13 -255 -66 -357 -163 -76 -71 -123 -143 -161
-244 -23 -59 -26 -82 -26 -197 0 -111 3 -139 23 -195 54 -154 166 -282 304
-350 181 -89 364 -91 542 -7 142 68 248 182 306 332 26 65 33 99 37 180 2 60
-1 124 -8 159 l-12 58 -59 -58 -59 -58 0 -61 c0 -179 -100 -339 -262 -419 -95
-47 -184 -62 -279 -46 -269 46 -451 316 -384 573 55 212 239 357 452 357 l79
0 58 59 58 58 -29 8 c-54 13 -158 20 -223 14z"/>
<path d="M4385 1272 c-22 -1 -64 -7 -94 -13 l-53 -11 57 -58 57 -57 98 -5 c87
-4 107 -9 175 -41 188 -90 298 -290 268 -488 -40 -255 -282 -439 -529 -400
-78 12 -178 56 -239 107 -97 79 -165 224 -165 353 l0 67 -59 58 c-71 70 -72
69 -79 -89 -5 -130 9 -201 65 -315 74 -151 243 -278 418 -315 364 -76 709 187
732 561 11 182 -47 336 -176 464 -132 132 -296 195 -476 182z"/>
</g>
</svg>
